<?xml version="1.0" encoding="UTF-8" standalone="no"?>
<!DOCTYPE svg PUBLIC "-//W3C//DTD SVG 20010904//EN"
              "http://www.w3.org/TR/2001/REC-SVG-20010904/DTD/svg10.dtd">

<svg xmlns="http://www.w3.org/2000/svg"
     width="3.89in" height="2.92in"
     viewBox="270 190 1167 876">
  <path id="head"
        fill="none" stroke="black" stroke-linejoin = "round" stroke-width="30"
        d="M 500.00,411.00
           C 522.00,574.00 530.00,604.00 575.00,645.00
             577.00,668.00 566.00,678.00 605.00,684.00
             631.00,687.00 613.00,715.00 660.00,714.00
             707.00,713.00 684.00,695.00 712.00,687.00
             733.00,685.00 757.00,689.00 746.00,634.00
             763.00,577.00 792.00,447.00 796.00,399.00
             822.00,378.00 809.00,391.00 823.00,380.00
             860.00,392.00 946.00,421.00 980.00,278.00
             925.00,205.00 814.00,296.00 796.00,301.00
             778.00,306.00 764.00,292.00 764.00,292.00
             760.43,291.48 756.67,268.00 759.00,258.00
             746.67,260.00 689.00,230.33 684.00,222.00
             679.00,229.33 624.67,231.00 620.00,222.00
             614.67,230.00 536.00,253.00 529.00,245.00
             533.67,256.33 530.00,283.33 518.00,290.00
             505.00,299.33 487.98,302.21 485.00,299.00
             428.00,243.00 348.00,219.00 314.00,261.00
             302.97,355.39 411.00,407.00 453.00,373.00
             455.14,373.04 479.00,381.00 500.00,411.00 Z" />
  <path id="snout"
        fill="black" stroke="black" stroke-width="5" stroke-linejoin="round"
        d="M 606.25,604.00
           C 607.20,612.92 614.66,621.07 621.25,626.70
             623.80,628.88 627.88,632.03 631.25,632.55
             634.00,632.99 635.81,632.02 638.25,631.00
             638.20,635.96 638.12,642.27 632.23,643.94
             626.41,645.59 618.57,639.15 614.25,635.87
             614.25,635.87 600.25,624.08 600.25,624.08
             598.37,622.48 595.65,620.43 594.95,617.96
             593.64,613.31 595.67,609.66 598.80,606.91
             592.98,608.09 592.11,615.66 592.26,622.00
             592.51,632.29 599.22,642.80 604.97,651.00
             604.97,651.00 620.62,672.00 620.62,672.00
             629.54,683.89 628.25,684.98 638.25,685.00
             638.25,685.00 691.25,684.00 691.25,684.00
             693.73,684.00 697.35,684.42 699.17,682.43
             700.66,680.79 703.67,670.73 704.58,668.00
             707.62,658.87 714.20,639.19 715.43,630.45
             711.59,635.02 707.07,643.14 701.25,645.26
             696.03,647.15 691.55,643.54 692.68,638.00
             693.52,633.93 699.37,626.88 701.81,623.00
             706.65,615.29 707.03,612.37 709.25,604.00
             715.25,608.56 715.82,611.93 717.25,619.00
             719.26,613.94 718.41,604.57 713.86,601.00
             711.93,599.49 708.61,598.71 706.25,597.98
             703.57,597.15 701.10,596.20 698.25,596.18
             691.97,596.14 686.12,600.36 679.25,600.91
             667.66,601.84 662.51,597.16 657.25,597.71
             657.25,597.71 638.25,602.92 638.25,602.92
             628.07,604.70 616.65,604.00 606.25,604.00 Z" />
  <path id="eyes"
        fill="none" stroke="black" stroke-width="12"
        d="M 559.50,438.83
           C 563.97,437.75 540.07,398.74 533.50,400.33
             525.68,394.18 514.50,427.33 524.50,440.83
             523.40,448.52 558.10,448.57 559.50,438.83 Z
           M 751.33,447.67
           C 746.01,436.12 772.66,404.27 775.83,411.17
             778.44,411.99 778.33,437.33 768.83,445.67
             764.00,452.67 751.63,451.81 751.33,447.67 Z" />
</svg>
